<svg width="1856" height="5019" viewBox="0 0 1856 5019" fill="none" xmlns="http://www.w3.org/2000/svg">
<path d="M483.658 345.626C499.013 338.873 513.611 331.257 527.386 322.901" stroke="white" stroke-opacity="0.3" stroke-width="1.0448" stroke-miterlimit="10"/>
<path d="M502.317 348.57C504.848 353.139 503.2 358.894 498.628 361.42L484.571 369.204C480 371.729 474.239 370.071 471.707 365.503L463.916 351.44C461.385 346.872 463.043 341.123 467.605 338.591L481.671 330.813C486.234 328.281 491.994 329.939 494.525 334.508" stroke="white" stroke-opacity="0.3" stroke-width="1.0448" stroke-miterlimit="10" stroke-linecap="round"/>
<path d="M503.227 326.974C499.622 321.67 500.992 314.437 506.302 310.83L522.639 299.721C527.939 296.107 535.168 297.483 538.784 302.793L549.894 319.128C553.5 324.432 552.13 331.664 546.819 335.272L530.482 346.383C525.181 349.997 517.953 348.621 514.337 343.311" stroke="white" stroke-opacity="0.3" stroke-width="1.0448" stroke-miterlimit="10" stroke-linecap="round"/>
<path d="M565.5 304.5C669 259.5 789 253 831.5 109C861.344 7.88316 796.5 -185.5 1073.5 -237" stroke="white" stroke-opacity="0.15"/>
<path d="M428.394 360C248.761 430.5 114.266 647.739 283.947 779C483.025 933 1278.39 672.47 1572 1196C2005.81 1969.5 417 2076 418 2467C419 2858 1572 2806 1565 3220C1556.38 3729.63 219 3854 333 4434" stroke="white" stroke-opacity="0.15"/>
<path d="M-162 4545C23.3168 4799.56 813.5 5367.5 1457 4709.93" stroke="#555A75" stroke-opacity="0.15" stroke-width="4" stroke-linecap="round" stroke-linejoin="round"/>
<g clip-path="url(#clip0_320_878)">
<path d="M1553.33 4603.85C1553.32 4603.78 1553.31 4603.71 1553.3 4603.65C1553.29 4603.63 1553.29 4603.62 1553.29 4603.6C1553.27 4603.54 1553.25 4603.49 1553.23 4603.43C1553.23 4603.42 1553.23 4603.41 1553.22 4603.4C1553.2 4603.34 1553.17 4603.27 1553.13 4603.21C1553.13 4603.2 1553.12 4603.19 1553.12 4603.18C1553.09 4603.13 1553.05 4603.07 1553.01 4603.02C1553.01 4603.01 1553 4603 1552.99 4603C1552.95 4602.94 1552.91 4602.89 1552.86 4602.84C1552.85 4602.83 1552.84 4602.82 1552.83 4602.81C1552.8 4602.79 1552.78 4602.76 1552.76 4602.74C1552.74 4602.72 1552.71 4602.71 1552.69 4602.69C1552.68 4602.68 1552.68 4602.68 1552.67 4602.67C1552.67 4602.67 1552.66 4602.66 1552.66 4602.66C1552.6 4602.62 1552.54 4602.58 1552.48 4602.54C1552.47 4602.54 1552.46 4602.53 1552.45 4602.53C1552.4 4602.5 1552.34 4602.47 1552.28 4602.45C1552.27 4602.45 1552.26 4602.44 1552.24 4602.43C1552.18 4602.41 1552.11 4602.39 1552.05 4602.37C1552.03 4602.37 1552.02 4602.37 1552.01 4602.37C1551.95 4602.35 1551.9 4602.35 1551.84 4602.34C1551.82 4602.34 1551.81 4602.34 1551.79 4602.33C1551.72 4602.33 1551.66 4602.33 1551.59 4602.33C1551.58 4602.33 1551.56 4602.33 1551.55 4602.33C1551.49 4602.34 1551.43 4602.34 1551.38 4602.35C1551.36 4602.35 1551.34 4602.36 1551.33 4602.36C1551.26 4602.37 1551.2 4602.39 1551.13 4602.41C1551.12 4602.41 1551.11 4602.42 1551.1 4602.42C1551.04 4602.44 1550.98 4602.47 1550.92 4602.5C1550.91 4602.5 1550.91 4602.5 1550.9 4602.51L1479.74 4638.1C1478.91 4638.51 1478.57 4639.52 1478.99 4640.36C1479.4 4641.19 1480.42 4641.53 1481.25 4641.11L1542.72 4610.36L1487.09 4664.55L1457.51 4652.98L1474.67 4644.4C1475.5 4643.98 1475.84 4642.97 1475.42 4642.14C1475 4641.31 1473.99 4640.97 1473.16 4641.39L1452.61 4651.67C1452.02 4651.96 1451.65 4652.58 1451.68 4653.25C1451.71 4653.91 1452.13 4654.5 1452.75 4654.74L1485.99 4667.74L1490.81 4694.51C1490.81 4694.51 1490.82 4694.52 1490.82 4694.53C1490.83 4694.61 1490.85 4694.69 1490.88 4694.77C1490.88 4694.78 1490.89 4694.78 1490.89 4694.79C1490.92 4694.87 1490.95 4694.94 1490.99 4695.01C1490.99 4695.01 1491 4695.02 1491 4695.03C1491.04 4695.1 1491.08 4695.16 1491.13 4695.23C1491.14 4695.24 1491.15 4695.25 1491.16 4695.27C1491.21 4695.33 1491.26 4695.39 1491.32 4695.44C1491.38 4695.5 1491.45 4695.55 1491.51 4695.59C1491.53 4695.6 1491.54 4695.61 1491.55 4695.62C1491.62 4695.66 1491.69 4695.7 1491.77 4695.74C1491.77 4695.74 1491.78 4695.74 1491.78 4695.75C1491.86 4695.78 1491.93 4695.8 1492.01 4695.83C1492.02 4695.83 1492.03 4695.83 1492.04 4695.83C1492.12 4695.86 1492.2 4695.87 1492.28 4695.88C1492.28 4695.88 1492.29 4695.88 1492.3 4695.88C1492.31 4695.88 1492.32 4695.88 1492.32 4695.88C1492.4 4695.89 1492.47 4695.89 1492.55 4695.89C1492.55 4695.89 1492.55 4695.89 1492.55 4695.89L1492.55 4695.89C1492.55 4695.89 1492.55 4695.89 1492.55 4695.89C1492.62 4695.89 1492.69 4695.88 1492.76 4695.87C1492.78 4695.86 1492.8 4695.86 1492.81 4695.86C1492.95 4695.83 1493.09 4695.78 1493.22 4695.72C1493.23 4695.71 1493.24 4695.7 1493.26 4695.7C1493.32 4695.66 1493.38 4695.63 1493.44 4695.59C1493.44 4695.59 1493.44 4695.58 1493.44 4695.58C1493.5 4695.54 1493.56 4695.5 1493.61 4695.45C1493.62 4695.43 1493.64 4695.42 1493.65 4695.41C1493.67 4695.39 1493.69 4695.37 1493.7 4695.35L1507.51 4680.46L1532.59 4699.27C1532.9 4699.5 1533.29 4699.62 1533.67 4699.6C1533.85 4699.59 1534.03 4699.56 1534.2 4699.49C1534.74 4699.28 1535.14 4698.81 1535.25 4698.24L1553.31 4604.33C1553.31 4604.32 1553.31 4604.32 1553.31 4604.32C1553.32 4604.25 1553.33 4604.18 1553.33 4604.11C1553.33 4604.09 1553.33 4604.08 1553.33 4604.07C1553.34 4604.01 1553.34 4603.95 1553.33 4603.89C1553.33 4603.87 1553.33 4603.86 1553.33 4603.85ZM1493.09 4688.14L1489.3 4667.09L1538.33 4619.34L1499.47 4672.35C1499.46 4672.36 1499.46 4672.37 1499.45 4672.38C1499.42 4672.43 1499.39 4672.47 1499.37 4672.51C1499.36 4672.53 1499.35 4672.55 1499.34 4672.56C1499.32 4672.61 1499.29 4672.65 1499.28 4672.7C1499.27 4672.7 1499.27 4672.71 1499.26 4672.72L1493.09 4688.14ZM1497.41 4686.4L1501.57 4676.01L1504.8 4678.43L1497.41 4686.4ZM1532.45 4694.95L1503.17 4673L1548.59 4611.04L1532.45 4694.95Z" fill="#393E57" fill-opacity="0.5"/>
<path d="M1504.84 4694.31C1504.15 4693.69 1503.08 4693.73 1502.46 4694.42L1488.27 4709.96C1487.65 4710.65 1487.69 4711.71 1488.38 4712.34C1488.72 4712.65 1489.16 4712.8 1489.59 4712.78C1490.02 4712.76 1490.45 4712.58 1490.76 4712.23L1504.94 4696.69C1505.57 4696 1505.52 4694.94 1504.84 4694.31Z" fill="#393E57" fill-opacity="0.5"/>
<path d="M1481.7 4676.87C1481.01 4676.24 1479.95 4676.29 1479.32 4676.98L1465.25 4692.4C1464.62 4693.08 1464.67 4694.15 1465.36 4694.77C1465.7 4695.09 1466.14 4695.23 1466.57 4695.21C1467 4695.19 1467.42 4695.01 1467.74 4694.67L1481.81 4679.25C1482.44 4678.56 1482.39 4677.49 1481.7 4676.87Z" fill="#393E57" fill-opacity="0.5"/>
</g>
<path d="M1558 4601.92C1591.17 4535.92 1696.8 4420.52 1854 4486.92" stroke="#555A75" stroke-opacity="0.15" stroke-width="4" stroke-linecap="round" stroke-linejoin="round"/>
<defs>
<clipPath id="clip0_320_878">
<rect width="114.951" height="114.951" fill="white" transform="translate(1444 4607.23) rotate(-2.61055)"/>
</clipPath>
</defs>
</svg>
